<svg version="1.2" xmlns="http://www.w3.org/2000/svg" viewBox="0 0 60 60" width="60" height="60"><style>.a{fill:#26cb15}.b{fill:#fff}</style><path class="a" d="m0 60v-60h60"/><path fill-rule="evenodd" class="b" d="m16.8 9.5c-0.2-0.3-0.5-0.5-0.8-0.5-0.3 0-0.6 0.2-0.8 0.5l-1.7 3.6-3.7 0.6c-0.3 0-0.6 0.2-0.7 0.6-0.1 0.3 0 0.6 0.2 0.9l2.7 2.8-0.6 3.9c-0.1 0.4 0.1 0.7 0.3 0.9 0.3 0.2 0.6 0.2 0.9 0l3.4-1.8 3.4 1.8c0.3 0.2 0.6 0.2 0.9 0 0.2-0.2 0.4-0.5 0.3-0.9l-0.6-3.9 2.7-2.8c0.2-0.3 0.3-0.6 0.2-0.9-0.1-0.4-0.4-0.6-0.7-0.6l-3.8-0.6z"/></svg>